<svg xmlns="http://www.w3.org/2000/svg" width="400" height="80" viewBox="0 0 400 80">
    <rect width="40" height="40" fill="#E5E5E5" x="0" y="0" />
    <rect width="40" height="40" fill="#e7e7e7" x="40" y="0" />
    <rect width="40" height="40" fill="#eaeaea" x="80" y="0" />
    <rect width="40" height="40" fill="#ececec" x="120" y="0" />
    <rect width="40" height="40" fill="#efefef" x="160" y="0" />
    <rect width="40" height="40" fill="#f2f2f2" x="200" y="0" />
    <rect width="40" height="40" fill="#f4f4f4" x="240" y="0" />
    <rect width="40" height="40" fill="#f7f7f7" x="280" y="0" />
    <rect width="40" height="40" fill="#f9f9f9" x="320" y="0" />
    <rect width="40" height="40" fill="#fcfcfc" x="360" y="0" />
    <rect width="40" height="40" fill="#E5E5E5" x="0" y="40" />
    <rect width="40" height="40" fill="#cecece" x="40" y="40" />
    <rect width="40" height="40" fill="#b7b7b7" x="80" y="40" />
    <rect width="40" height="40" fill="#a0a0a0" x="120" y="40" />
    <rect width="40" height="40" fill="#898989" x="160" y="40" />
    <rect width="40" height="40" fill="#727272" x="200" y="40" />
    <rect width="40" height="40" fill="#5b5b5b" x="240" y="40" />
    <rect width="40" height="40" fill="#444" x="280" y="40" />
    <rect width="40" height="40" fill="#2d2d2d" x="320" y="40" />
    <rect width="40" height="40" fill="#161616" x="360" y="40" />
</svg>