<svg xmlns="http://www.w3.org/2000/svg" width="400" height="80" viewBox="0 0 400 80">
    <rect width="40" height="40" fill="#ECB3F5" x="0" y="0" />
    <rect width="40" height="40" fill="#edbaf6" x="40" y="0" />
    <rect width="40" height="40" fill="#efc2f7" x="80" y="0" />
    <rect width="40" height="40" fill="#f1c9f8" x="120" y="0" />
    <rect width="40" height="40" fill="#f3d1f9" x="160" y="0" />
    <rect width="40" height="40" fill="#f5d9fa" x="200" y="0" />
    <rect width="40" height="40" fill="#f7e0fb" x="240" y="0" />
    <rect width="40" height="40" fill="#f9e8fc" x="280" y="0" />
    <rect width="40" height="40" fill="#fbeffd" x="320" y="0" />
    <rect width="40" height="40" fill="#fdf7fe" x="360" y="0" />
    <rect width="40" height="40" fill="#ECB3F5" x="0" y="40" />
    <rect width="40" height="40" fill="#d4a1dc" x="40" y="40" />
    <rect width="40" height="40" fill="#bc8fc4" x="80" y="40" />
    <rect width="40" height="40" fill="#a57dab" x="120" y="40" />
    <rect width="40" height="40" fill="#8d6b93" x="160" y="40" />
    <rect width="40" height="40" fill="#76597a" x="200" y="40" />
    <rect width="40" height="40" fill="#5e4762" x="240" y="40" />
    <rect width="40" height="40" fill="#463549" x="280" y="40" />
    <rect width="40" height="40" fill="#2f2330" x="320" y="40" />
    <rect width="40" height="40" fill="#171118" x="360" y="40" />
</svg>